<svg width="20" height="20" viewBox="0 0 20 20" fill="none" xmlns="http://www.w3.org/2000/svg">
<g id="1564491_add_create_new_plus_icon 1" clip-path="url(#clip0_4_51)">
<g id="icons">
<path id="add" d="M10 0.833344C4.91668 0.833344 0.833344 4.91668 0.833344 10C0.833344 15.0833 4.91668 19.1667 10 19.1667C15.0833 19.1667 19.1667 15.0833 19.1667 10C19.1667 4.91668 15.0833 0.833344 10 0.833344ZM14.1667 11.6667H11.6667V14.1667C11.6667 15.0833 10.9167 15.8333 10 15.8333C9.08334 15.8333 8.33334 15.0833 8.33334 14.1667V11.6667H5.83334C4.91668 11.6667 4.16668 10.9167 4.16668 10C4.16668 9.08334 4.91668 8.33334 5.83334 8.33334H8.33334V5.83334C8.33334 4.91668 9.08334 4.16668 10 4.16668C10.9167 4.16668 11.6667 4.91668 11.6667 5.83334V8.33334H14.1667C15.0833 8.33334 15.8333 9.08334 15.8333 10C15.8333 10.9167 15.0833 11.6667 14.1667 11.6667Z" fill="#13E034"/>
</g>
</g>
<defs>
<clipPath id="clip0_4_51">
<rect width="20" height="20" fill="white"/>
</clipPath>
</defs>
</svg>
